<svg
  width="136"
  height="155"
  viewBox="0 0 136 155"
  fill="none"
  xmlns="http://www.w3.org/2000/svg"
>
  <g clip-path="url(#clip0_2060_1372)">
    <path
      d="M80.6337 94.6307L54.8916 120.298V85.391H29.7759L67.6236 47.6532H16.5049C7.65068 47.6532 0.472656 54.8104 0.472656 63.6389V111.596C0.472656 120.424 7.65068 127.582 16.5049 127.582H40.7027V135.412L40.6834 135.431V154.27L75.9479 119.108C78.9543 116.111 80.6437 112.044 80.6437 107.805V95.587L80.6337 95.597V94.6311V94.6307Z"
      fill="#8257E5"
    />
    <path
      d="M119.04 27.6634H94.8424V19.8333L94.8617 19.8141V0.974976L59.5972 36.137C56.5908 39.1348 54.9014 43.2011 54.9014 47.4405V59.6584L54.9114 59.6484V60.3278L80.4591 34.8542V68.7282H106.611L67.6342 107.592H119.04C127.894 107.592 135.072 100.435 135.072 91.6061V43.6491C135.072 34.8206 127.894 27.6634 119.04 27.6634Z"
      fill="#01C59A"
    />
  </g>
  <defs>
    <clipPath id="clip0_2060_1372">
      <rect
        width="134.6"
        height="153.295"
        fill="white"
        transform="translate(0.472656 0.974976)"
      />
    </clipPath>
  </defs>
</svg>
