<?xml version="1.0" standalone="no"?>
<!DOCTYPE svg PUBLIC "-//W3C//DTD SVG 20010904//EN"
 "http://www.w3.org/TR/2001/REC-SVG-20010904/DTD/svg10.dtd">
<svg version="1.0" xmlns="http://www.w3.org/2000/svg"
 width="700.000000pt" height="700.000000pt" viewBox="0 0 700.000000 700.000000"
 preserveAspectRatio="xMidYMid meet">
<metadata>
Created by potrace 1.14, written by Peter Selinger 2001-2017
</metadata>
<g transform="translate(0.000000,700.000000) scale(0.100000,-0.100000)"
fill="#000000" stroke="none">
<path d="M5331 5229 c-204 -36 -393 -162 -490 -327 -106 -178 -136 -422 -80
-639 47 -187 185 -361 349 -441 123 -61 220 -83 365 -83 139 -1 232 16 327 59
146 66 261 170 344 312 l44 75 0 202 0 203 -385 0 -385 0 0 -150 0 -150 205 0
206 0 -12 -22 c-28 -55 -82 -108 -136 -134 -80 -40 -202 -45 -303 -15 -137 42
-214 151 -227 322 -10 135 27 258 101 332 111 111 324 116 435 10 l45 -43 218
0 218 0 -6 28 c-29 119 -85 214 -177 298 -123 112 -263 163 -472 169 -71 2
-154 0 -184 -6z"/>
<path d="M840 4485 l0 -747 423 5 c342 4 434 8 485 21 134 34 223 101 274 204
31 63 33 72 33 177 0 106 -1 112 -34 173 -42 77 -112 142 -181 168 l-51 20 50
22 c110 50 178 154 188 286 15 195 -104 346 -312 396 -33 8 -193 14 -462 17
l-413 5 0 -747z m690 401 c96 -35 108 -186 17 -229 -27 -13 -64 -17 -166 -17
l-131 0 0 130 0 130 123 -1 c71 0 137 -6 157 -13z m-9 -546 c74 -14 110 -51
116 -117 7 -64 -16 -109 -62 -129 -24 -10 -77 -14 -180 -14 l-145 0 0 135 0
135 109 0 c59 0 133 -5 162 -10z"/>
<path d="M2245 5218 c-3 -7 -4 -341 -3 -743 l3 -730 473 -3 472 -2 0 165 0
165 -265 0 -265 0 0 135 0 135 235 0 235 0 0 155 0 155 -235 0 -235 0 0 125 0
125 265 0 265 0 0 165 0 165 -470 0 c-367 0 -472 -3 -475 -12z"/>
<path d="M3395 5219 c-3 -8 -4 -342 -3 -744 l3 -730 205 0 205 0 3 273 c3 358
-4 358 186 7 78 -144 145 -266 149 -273 6 -9 68 -12 233 -12 123 0 224 3 224
6 0 6 -29 58 -246 431 l-82 142 74 35 c175 83 270 261 244 458 -22 167 -104
281 -255 353 -113 54 -138 57 -552 62 -317 4 -384 3 -388 -8z m701 -355 c74
-35 102 -125 66 -207 -31 -69 -60 -81 -219 -85 l-133 -4 0 156 0 156 126 0
c96 0 134 -4 160 -16z"/>
<path d="M2940 3255 c-239 -54 -417 -194 -521 -410 -56 -115 -72 -201 -66
-365 5 -155 29 -247 94 -360 49 -83 180 -214 263 -263 138 -80 323 -117 486
-98 329 39 583 266 649 580 19 93 19 251 -1 349 -19 94 -86 236 -150 315 -85
106 -237 203 -379 242 -85 23 -292 29 -375 10z m293 -385 c114 -43 189 -147
206 -288 25 -198 -60 -373 -205 -425 -64 -23 -193 -23 -260 0 -33 11 -67 34
-106 73 -46 47 -60 68 -77 124 -26 83 -28 227 -6 303 30 102 119 196 209 222
59 17 181 13 239 -9z"/>
<path d="M840 2510 l0 -740 205 0 205 0 0 295 0 295 250 0 250 0 0 -295 0
-295 205 0 205 0 0 740 0 740 -205 0 -205 0 0 -280 0 -280 -250 0 -250 0 0
280 0 280 -205 0 -205 0 0 -740z"/>
<path d="M4050 2510 l0 -740 435 0 435 0 0 155 0 155 -230 0 -230 0 0 585 0
585 -205 0 -205 0 0 -740z"/>
<path d="M5070 3085 l0 -165 300 0 c165 0 300 -3 300 -7 0 -5 -135 -192 -300
-418 l-300 -410 0 -157 0 -158 535 0 535 0 0 165 0 165 -304 2 -304 3 304 410
303 410 1 163 0 162 -535 0 -535 0 0 -165z"/>
</g>
</svg>
